<svg width="173" height="64" viewBox="0 0 173 64" fill="none" xmlns="http://www.w3.org/2000/svg">
<rect x="0.5" y="0.5" width="172" height="63" rx="31.5" stroke="white"/>
<path d="M21.536 43.224C20.064 43.224 18.7413 42.968 17.568 42.456C16.416 41.9227 15.5093 41.1973 14.848 40.28C14.1867 39.3413 13.8453 38.264 13.824 37.048H16.928C17.0347 38.0933 17.4613 38.9787 18.208 39.704C18.976 40.408 20.0853 40.76 21.536 40.76C22.9227 40.76 24.0107 40.4187 24.8 39.736C25.6107 39.032 26.016 38.136 26.016 37.048C26.016 36.1947 25.7813 35.5013 25.312 34.968C24.8427 34.4347 24.256 34.0293 23.552 33.752C22.848 33.4747 21.8987 33.176 20.704 32.856C19.232 32.472 18.048 32.088 17.152 31.704C16.2773 31.32 15.52 30.7227 14.88 29.912C14.2613 29.08 13.952 27.9707 13.952 26.584C13.952 25.368 14.2613 24.2907 14.88 23.352C15.4987 22.4133 16.3627 21.688 17.472 21.176C18.6027 20.664 19.8933 20.408 21.344 20.408C23.4347 20.408 25.1413 20.9307 26.464 21.976C27.808 23.0213 28.5653 24.408 28.736 26.136H25.536C25.4293 25.2827 24.9813 24.536 24.192 23.896C23.4027 23.2347 22.3573 22.904 21.056 22.904C19.84 22.904 18.848 23.224 18.08 23.864C17.312 24.4827 16.928 25.3573 16.928 26.488C16.928 27.2987 17.152 27.96 17.6 28.472C18.0693 28.984 18.6347 29.3787 19.296 29.656C19.9787 29.912 20.928 30.2107 22.144 30.552C23.616 30.9573 24.8 31.3627 25.696 31.768C26.592 32.152 27.36 32.76 28 33.592C28.64 34.4027 28.96 35.512 28.96 36.92C28.96 38.008 28.672 39.032 28.096 39.992C27.52 40.952 26.6667 41.7307 25.536 42.328C24.4053 42.9253 23.072 43.224 21.536 43.224ZM36.1573 28.696C36.7333 27.6933 37.5866 26.8613 38.7173 26.2C39.8693 25.5173 41.2026 25.176 42.7173 25.176C44.2746 25.176 45.6826 25.5493 46.9412 26.296C48.2212 27.0427 49.2239 28.0987 49.9493 29.464C50.6746 30.808 51.0373 32.376 51.0373 34.168C51.0373 35.9387 50.6746 37.5173 49.9493 38.904C49.2239 40.2907 48.2212 41.368 46.9412 42.136C45.6826 42.904 44.2746 43.288 42.7173 43.288C41.2239 43.288 39.9013 42.9573 38.7493 42.296C37.6186 41.6133 36.7546 40.7707 36.1573 39.768V51.32H33.2453V25.464H36.1573V28.696ZM48.0613 34.168C48.0613 32.8453 47.7946 31.6933 47.2613 30.712C46.7279 29.7307 46.0026 28.984 45.0853 28.472C44.1893 27.96 43.1973 27.704 42.1093 27.704C41.0426 27.704 40.0506 27.9707 39.1333 28.504C38.2373 29.016 37.5119 29.7733 36.9573 30.776C36.4239 31.7573 36.1573 32.8987 36.1573 34.2C36.1573 35.5227 36.4239 36.6853 36.9573 37.688C37.5119 38.6693 38.2373 39.4267 39.1333 39.96C40.0506 40.472 41.0426 40.728 42.1093 40.728C43.1973 40.728 44.1893 40.472 45.0853 39.96C46.0026 39.4267 46.7279 38.6693 47.2613 37.688C47.7946 36.6853 48.0613 35.512 48.0613 34.168ZM62.5183 43.288C60.8756 43.288 59.3823 42.9147 58.0383 42.168C56.7156 41.4213 55.6703 40.3653 54.9023 39C54.1556 37.6133 53.7823 36.0133 53.7823 34.2C53.7823 32.408 54.1663 30.8293 54.9343 29.464C55.7236 28.0773 56.7903 27.0213 58.1343 26.296C59.4783 25.5493 60.9823 25.176 62.6463 25.176C64.3103 25.176 65.8143 25.5493 67.1583 26.296C68.5023 27.0213 69.5583 28.0667 70.3263 29.432C71.1156 30.7973 71.5103 32.3867 71.5103 34.2C71.5103 36.0133 71.1049 37.6133 70.2943 39C69.5049 40.3653 68.4276 41.4213 67.0623 42.168C65.6969 42.9147 64.1823 43.288 62.5183 43.288ZM62.5183 40.728C63.5636 40.728 64.5449 40.4827 65.4623 39.992C66.3796 39.5013 67.1156 38.7653 67.6703 37.784C68.2463 36.8027 68.5343 35.608 68.5343 34.2C68.5343 32.792 68.2569 31.5973 67.7023 30.616C67.1476 29.6347 66.4223 28.9093 65.5263 28.44C64.6303 27.9493 63.6596 27.704 62.6143 27.704C61.5476 27.704 60.5663 27.9493 59.6703 28.44C58.7956 28.9093 58.0916 29.6347 57.5583 30.616C57.0249 31.5973 56.7583 32.792 56.7583 34.2C56.7583 35.6293 57.0143 36.8347 57.5263 37.816C58.0596 38.7973 58.7636 39.5333 59.6383 40.024C60.5129 40.4933 61.4729 40.728 62.5183 40.728ZM78.251 28.312C78.763 27.3093 79.4883 26.5307 80.427 25.976C81.387 25.4213 82.5497 25.144 83.915 25.144V28.152H83.147C79.883 28.152 78.251 29.9227 78.251 33.464V43H75.339V25.464H78.251V28.312ZM90.8285 27.864V38.2C90.8285 39.0533 91.0098 39.6613 91.3725 40.024C91.7352 40.3653 92.3645 40.536 93.2605 40.536H95.4045V43H92.7805C91.1592 43 89.9432 42.6267 89.1325 41.88C88.3218 41.1333 87.9165 39.9067 87.9165 38.2V27.864H85.6445V25.464H87.9165V21.048H90.8285V25.464H95.4045V27.864H90.8285ZM117.909 20.536V43H112.437V33.752H103.925V43H98.4528V20.536H103.925V29.336H112.437V20.536H117.909ZM139.491 25.144V43H134.019V40.568C133.464 41.3573 132.707 41.9973 131.747 42.488C130.808 42.9573 129.763 43.192 128.611 43.192C127.246 43.192 126.04 42.8933 124.995 42.296C123.95 41.6773 123.139 40.792 122.563 39.64C121.987 38.488 121.699 37.1333 121.699 35.576V25.144H127.139V34.84C127.139 36.0347 127.448 36.9627 128.067 37.624C128.686 38.2853 129.518 38.616 130.563 38.616C131.63 38.616 132.472 38.2853 133.091 37.624C133.71 36.9627 134.019 36.0347 134.019 34.84V25.144H139.491ZM148.894 27.672C149.406 26.84 150.142 26.168 151.102 25.656C152.062 25.144 153.16 24.888 154.398 24.888C155.87 24.888 157.203 25.2613 158.398 26.008C159.592 26.7547 160.531 27.8213 161.214 29.208C161.918 30.5947 162.27 32.2053 162.27 34.04C162.27 35.8747 161.918 37.496 161.214 38.904C160.531 40.2907 159.592 41.368 158.398 42.136C157.203 42.8827 155.87 43.256 154.398 43.256C153.139 43.256 152.04 43.0107 151.102 42.52C150.163 42.008 149.427 41.336 148.894 40.504V43H143.422V19.32H148.894V27.672ZM156.702 34.04C156.702 32.6747 156.318 31.608 155.55 30.84C154.803 30.0507 153.875 29.656 152.766 29.656C151.678 29.656 150.75 30.0507 149.982 30.84C149.235 31.6293 148.862 32.7067 148.862 34.072C148.862 35.4373 149.235 36.5147 149.982 37.304C150.75 38.0933 151.678 38.488 152.766 38.488C153.854 38.488 154.782 38.0933 155.55 37.304C156.318 36.4933 156.702 35.4053 156.702 34.04Z" fill="white"/>
</svg>
